{
    "asset" : {
        "generator" : "Khronos glTF Blender I/O v1.2.75",
        "version" : "2.0"
    },
    "scene" : 0,
    "scenes" : [
        {
            "name" : "Scene",
            "nodes" : [
                0,
                1,
                2,
                3
            ]
        }
    ],
    "nodes" : [
        {
            "name" : "Light",
            "rotation" : [
                0.16907575726509094,
                0.7558803558349609,
                -0.27217137813568115,
                0.570947527885437
            ],
            "translation" : [
                1.1589181423187256,
                1.608166217803955,
                2.6602790355682373
            ]
        },
        {
            "name" : "Camera",
            "rotation" : [
                0.483536034822464,
                0.33687159419059753,
                -0.20870360732078552,
                0.7804827094078064
            ],
            "translation" : [
                7.358891487121582,
                4.958309173583984,
                6.925790786743164
            ]
        },
        {
            "mesh" : 0,
            "name" : "Rosca"
        },
        {
            "mesh" : 1,
            "name" : "cobertura"
        }
    ],
    "materials" : [
        {
            "doubleSided" : true,
            "name" : "Material.001",
            "pbrMetallicRoughness" : {}
        },
        {
            "doubleSided" : true,
            "name" : "Material.002",
            "pbrMetallicRoughness" : {}
        }
    ],
    "meshes" : [
        {
            "name" : "Torus",
            "primitives" : [
                {
                    "attributes" : {
                        "POSITION" : 0,
                        "NORMAL" : 1,
                        "TEXCOORD_0" : 2
                    },
                    "indices" : 3,
                    "material" : 0
                }
            ]
        },
        {
            "name" : "Torus.001",
            "primitives" : [
                {
                    "attributes" : {
                        "POSITION" : 4,
                        "NORMAL" : 5,
                        "TEXCOORD_0" : 6
                    },
                    "indices" : 7,
                    "material" : 1
                }
            ]
        }
    ],
    "accessors" : [
        {
            "bufferView" : 0,
            "componentType" : 5126,
            "count" : 86657,
            "max" : [
                0.07490918785333633,
                0.018452472984790802,
                0.0876133143901825
            ],
            "min" : [
                -0.08103293925523758,
                -0.03503440320491791,
                -0.06660064309835434
            ],
            "type" : "VEC3"
        },
        {
            "bufferView" : 1,
            "componentType" : 5126,
            "count" : 86657,
            "type" : "VEC3"
        },
        {
            "bufferView" : 2,
            "componentType" : 5126,
            "count" : 86657,
            "type" : "VEC2"
        },
        {
            "bufferView" : 3,
            "componentType" : 5125,
            "count" : 516096,
            "type" : "SCALAR"
        },
        {
            "bufferView" : 4,
            "componentType" : 5126,
            "count" : 4698,
            "max" : [
                0.06902683526277542,
                0.020025799050927162,
                0.084385946393013
            ],
            "min" : [
                -0.0757276862859726,
                -0.014794079586863518,
                -0.06106596067547798
            ],
            "type" : "VEC3"
        },
        {
            "bufferView" : 5,
            "componentType" : 5126,
            "count" : 4698,
            "type" : "VEC3"
        },
        {
            "bufferView" : 6,
            "componentType" : 5126,
            "count" : 4698,
            "type" : "VEC2"
        },
        {
            "bufferView" : 7,
            "componentType" : 5123,
            "count" : 23820,
            "type" : "SCALAR"
        }
    ],
    "bufferViews" : [
        {
            "buffer" : 0,
            "byteLength" : 1039884,
            "byteOffset" : 0
        },
        {
            "buffer" : 0,
            "byteLength" : 1039884,
            "byteOffset" : 1039884
        },
        {
            "buffer" : 0,
            "byteLength" : 693256,
            "byteOffset" : 2079768
        },
        {
            "buffer" : 0,
            "byteLength" : 2064384,
            "byteOffset" : 2773024
        },
        {
            "buffer" : 0,
            "byteLength" : 56376,
            "byteOffset" : 4837408
        },
        {
            "buffer" : 0,
            "byteLength" : 56376,
            "byteOffset" : 4893784
        },
        {
            "buffer" : 0,
            "byteLength" : 37584,
            "byteOffset" : 4950160
        },
        {
            "buffer" : 0,
            "byteLength" : 47640,
            "byteOffset" : 4987744
        }
    ],
    "buffers" : [
        {
            "byteLength" : 5035384,
            "uri" : "dona.bin"
        }
    ]
}
