{
  "accessors": [
    {
      "bufferView": 2,
      "componentType": 5126,
      "count": 12118,
      "max": [
        194.92756652832031,
        113.32403564453125,
        194.85975646972656
      ],
      "min": [
        -195.29508972167969,
        1.2219581604003906,
        -195.53125
      ],
      "type": "VEC3"
    },
    {
      "bufferView": 2,
      "byteOffset": 145416,
      "componentType": 5126,
      "count": 12118,
      "max": [
        0.99994373321533203,
        0.99999737739562988,
        0.99886691570281982
      ],
      "min": [
        -0.99906682968139648,
        -0.99999511241912842,
        -0.99983477592468262
      ],
      "type": "VEC3"
    },
    {
      "bufferView": 1,
      "componentType": 5126,
      "count": 12118,
      "max": [
        1.0000001192092896,
        1.0000001192092896
      ],
      "min": [
        0,
        0
      ],
      "type": "VEC2"
    },
    {
      "bufferView": 0,
      "componentType": 5125,
      "count": 49152,
      "max": [
        12117
      ],
      "min": [
        0
      ],
      "type": "SCALAR"
    },
    {
      "bufferView": 2,
      "byteOffset": 290832,
      "componentType": 5126,
      "count": 7600,
      "max": [
        190.51303100585938,
        120.41493225097656,
        191.333740234375
      ],
      "min": [
        -190.89521789550781,
        67.58648681640625,
        -190.326416015625
      ],
      "type": "VEC3"
    },
    {
      "bufferView": 2,
      "byteOffset": 382032,
      "componentType": 5126,
      "count": 7600,
      "max": [
        0.99846351146697998,
        0.9999997615814209,
        0.99826699495315552
      ],
      "min": [
        -0.99985063076019287,
        -0.99999737739562988,
        -0.99989557266235352
      ],
      "type": "VEC3"
    },
    {
      "bufferView": 1,
      "byteOffset": 96944,
      "componentType": 5126,
      "count": 7600,
      "max": [
        0.99835777282714844,
        0.96436095237731934
      ],
      "min": [
        0,
        0
      ],
      "type": "VEC2"
    },
    {
      "bufferView": 0,
      "byteOffset": 196608,
      "componentType": 5125,
      "count": 33792,
      "max": [
        7599
      ],
      "min": [
        0
      ],
      "type": "SCALAR"
    }
  ],
  "asset": {
    "extras": {
      "author": "Jimmy Gunawan (https://sketchfab.com/jimmygunawan)",
      "license": "CC-BY-4.0 (http://creativecommons.org/licenses/by/4.0/)",
      "source": "https://sketchfab.com/3d-models/sv-procedural-donuts-2020-b2a4383526264bad9d87e5bab49e7a50",
      "title": "SV Procedural Donuts 2020"
    },
    "generator": "Sketchfab-8.56.0",
    "version": "2.0"
  },
  "bufferViews": [
    {
      "buffer": 0,
      "byteLength": 331776,
      "byteOffset": 0,
      "name": "floatBufferViews",
      "target": 34963
    },
    {
      "buffer": 0,
      "byteLength": 157744,
      "byteOffset": 331776,
      "byteStride": 8,
      "name": "floatBufferViews",
      "target": 34962
    },
    {
      "buffer": 0,
      "byteLength": 473232,
      "byteOffset": 489520,
      "byteStride": 12,
      "name": "floatBufferViews",
      "target": 34962
    }
  ],
  "buffers": [
    {
      "byteLength": 962752,
      "uri": "scene.bin"
    }
  ],
  "images": [
    {
      "uri": "textures/DonutRamp_baseColor.png"
    }
  ],
  "materials": [
    {
      "doubleSided": true,
      "emissiveFactor": [
        0,
        0,
        0
      ],
      "name": "DonutRamp",
      "pbrMetallicRoughness": {
        "baseColorFactor": [
          1,
          1,
          1,
          1
        ],
        "baseColorTexture": {
          "index": 0,
          "texCoord": 0
        },
        "metallicFactor": 0.032110963328899865,
        "roughnessFactor": 0.50028500855025648
      }
    },
    {
      "doubleSided": true,
      "emissiveFactor": [
        0,
        0,
        0
      ],
      "name": "Material_001",
      "pbrMetallicRoughness": {
        "baseColorFactor": [
          0.79999999999999993,
          0.25679200000000008,
          0.42860399999999982,
          1
        ],
        "metallicFactor": 0.056431692950788523,
        "roughnessFactor": 0.27474824244727347
      }
    }
  ],
  "meshes": [
    {
      "primitives": [
        {
          "attributes": {
            "NORMAL": 1,
            "POSITION": 0,
            "TEXCOORD_0": 2
          },
          "indices": 3,
          "material": 0,
          "mode": 4
        }
      ]
    },
    {
      "primitives": [
        {
          "attributes": {
            "NORMAL": 5,
            "POSITION": 4,
            "TEXCOORD_0": 6
          },
          "indices": 7,
          "material": 1,
          "mode": 4
        }
      ]
    }
  ],
  "nodes": [
    {
      "children": [
        1
      ],
      "name": "RootNode (gltf orientation matrix)",
      "rotation": [
        -0.70710678118654746,
        -0,
        -0,
        0.70710678118654757
      ]
    },
    {
      "children": [
        2
      ],
      "name": "RootNode (model correction matrix)"
    },
    {
      "children": [
        3
      ],
      "name": "root"
    },
    {
      "children": [
        4,
        6
      ],
      "matrix": [
        1,
        0,
        0,
        0,
        0,
        2.2204460492503131e-16,
        1,
        0,
        0,
        -1,
        2.2204460492503131e-16,
        0,
        0,
        0,
        0,
        1
      ],
      "name": "GLTF_SceneRootNode"
    },
    {
      "children": [
        5
      ],
      "name": "Alpha_0000_0"
    },
    {
      "mesh": 0,
      "name": ""
    },
    {
      "children": [
        7
      ],
      "name": "Beta_0000_1"
    },
    {
      "mesh": 1,
      "name": ""
    }
  ],
  "samplers": [
    {
      "magFilter": 9729,
      "minFilter": 9987,
      "wrapS": 10497,
      "wrapT": 10497
    }
  ],
  "scene": 0,
  "scenes": [
    {
      "name": "OSG_Scene",
      "nodes": [
        0
      ]
    }
  ],
  "textures": [
    {
      "sampler": 0,
      "source": 0
    }
  ]
}

